<svg id="Layer_1" data-name="Layer 1" xmlns="http://www.w3.org/2000/svg" viewBox="0 0 427.68 137.61"><path d="M57.65,73c-3.09,9.89-5,20-6.82,30.24q-1.36,7.64-2.56,15.3c-.7,4.46-2.06,9.4-1.77,13.93.66,10.17,11.79,11.23,18,5.1,3.53-3.48,6.37-8,9.41-11.87l9.6-12.36H74.14c1.59,1.68,1.07,4.69,1.06,6.8a27.79,27.79,0,0,0,.92,8.47c1.68,5.41,6,10.57,11.95,11,6.87.48,10.89-5,14.23-10.2a140.24,140.24,0,0,0,10.33-19.59c6.22-14,11.56-28.42,16.76-42.84,5.31-14.7,10.92-29.37,15.73-44.24,2.73-8.44-10-11.58-13.08-3.6C122.6,43.42,115,68.43,105.29,92.69c-4.39,11-9,22.5-16,32.13a6.41,6.41,0,0,1-.89,1.18c-.86.77-.37.94,1.49.51.06-.28-1-1.74-1.07-2.13-.6-2-.24-4.36-.28-6.44-.1-5.34-1.23-10.09-5-14-3.26-3.42-7.92-1.9-10.43,1.34L59.34,123.05c-1,1.28-3,3-3.52,4.56q-2.4,2.29,3.36,3.48c0-.44.07-.88.1-1.33,1.28-3.26.93-8,1.38-11.55,1.87-14.7,4.74-29.27,6.27-44,.59-5.49-7.76-6.14-9.28-1.26Z" transform="translate(-46.46 -14.47)"/><path d="M122.85,136.21a46.33,46.33,0,0,0,40.82-26c2.64-5.48-1.68-10.82-7.54-9.81a30.17,30.17,0,0,0-20.37,14.07c-4.21,6.93-6.4,17.15.64,23,7.2,6,18.54,3.7,26.42.55a83.84,83.84,0,0,0,23.75-14.94,92,92,0,0,0,17.65-20.84c5.07-8.19,10.21-18.65,6.17-28.29-4.46-10.64-15.83-7.28-21.13.45s-8.8,17.1-11.39,26.1a187,187,0,0,0-6.44,31.51c-.56,5.27.72,10.72,5.37,13.81a9.79,9.79,0,0,0,12.91-1.28c4.16-4.45.1-12.31-6.11-10.49a1.39,1.39,0,0,1,1.49.75,12.7,12.7,0,0,1,.14-1.85,45.78,45.78,0,0,0,1-5.62c.59-3.34,1.2-6.67,1.87-10a148.19,148.19,0,0,1,5.73-21.13,74.51,74.51,0,0,1,4.39-9.78c.69-1.28,2.86-3.68,3-5l.63-.7c-3.15-1.76-4.39-1.46-3.7.92-.65,1.33-.57,3.45-1.12,4.95a39.58,39.58,0,0,1-2.59,5.32,81,81,0,0,1-5.59,8.78c-8,10.87-19.88,21.24-32.89,25.46a26.09,26.09,0,0,1-9.14,1.42c-1.59-.06-1.77-1.16-1.42.17-.34-1.3.61-3.37,1.12-4.54,2.42-5.49,7.49-8.8,13.22-9.88l-7.54-9.81c-5.35,11.52-16.46,20-29.29,21-7.39.58-7.62,11.84,0,11.68Z" transform="translate(-46.46 -14.47)"/><path d="M238.81,110.65c2.72-6.48-.76-14.22-6.67-17.6-6.44-3.68-14.68-1.77-20.13,2.77-10.4,8.65-16.21,29.78-6.93,41,10.95,13.25,29.46,4.19,40.78-3.4a116.34,116.34,0,0,0,18.88-15.7c5.47-5.67,11.28-12.41,8.73-20.84-1.19-3.92-6.37-6.8-10.12-4.12a46.89,46.89,0,0,0-17.89,24c-1.58,5-3,11.24.75,15.57,3.42,4,9.29,3.82,13.58,1.46,9.1-5,12-15.55,16.72-24a7.71,7.71,0,0,1,1.77-2.58c.66-.49-.74-.54-.25-.22,1.05.69,1.1,2.88,1.06,4-.2,5.63-3,10.87-3,16.66,0,8.06,11.42,9.34,13.79,1.87,2.92-9.2,8.3-19.11,16.06-25.16,1.13-.88,3.84-1.29,1.77-2.18-1.83-.79-1.1.8-1.26,2.72-.1,1.23-.22,2.47-.39,3.69a91.15,91.15,0,0,1-4.58,18.1c-3.07,8.66,10.45,12.15,13.65,3.76,2.86-7.5,5.9-15.62,11.47-21.58a24.79,24.79,0,0,1,4.05-3.61,21.55,21.55,0,0,0,2-1.19l-3.34-2.27a7.82,7.82,0,0,1-.06,2.16c-.51,4.39-2.86,8.41-3.81,12.71-2.13,9.53,1.33,20.69,13.1,18.82,9.12-1.45,18.38-5.49,26.53-9.7a110.14,110.14,0,0,0,23.29-16.12c6.14-5.55,9.83-15.73.72-20.72-14.9-8.15-36.9,14.85-33.64,29.4,2.08,9.29,11.6,13.22,20.15,14.29,11.59,1.46,24.29,1.23,35.33-2.8,6.31-2.3,6.05-13.49-1.72-12.68s-15.64,2-23.55,1.93c-2.95-.05-15.05.42-16.29-3.7-.56-1.86,2.64-5.76,3.69-7a22.49,22.49,0,0,1,7.1-6c.18-.08,2.08-.69,2.33-.73l.05,0c.56-.56-16.48,13.78-.94-2-1.92-3.59-.43-1.85-2.06-1.1-1.29.59-2.63,2.36-3.74,3.29q-2.49,2.08-5.13,4a102.32,102.32,0,0,1-18.76,10.62,93.45,93.45,0,0,1-10,3.59c-1.22.37-3.84.55-4.8,1.33l-.81.2c1.89,2.24,2.75,2.54,2.57.87a18.51,18.51,0,0,0,.44-2.68c1.58-6.74,5.15-12.87,3.89-20-1.35-7.6-8.39-11.45-15.59-8.76-14.44,5.4-21.12,22.64-26.14,35.8l13.65,3.76c3.66-10.36,13.72-46.61-9.39-41.45-7.42,1.66-12.92,7.94-17.39,13.68a72.65,72.65,0,0,0-12,23.1l13.79,1.87c0-4.8,2-9.31,2.69-14a20.3,20.3,0,0,0-2.52-13.4c-5.2-8.54-16.25-9.32-22.78-1.82-3,3.46-4.6,7.77-6.54,11.85a62.1,62.1,0,0,1-3.23,6.09c-1.08,1.74-3.28,3.25-4.14,5q-2.4,1,1.68,2c1.66,2,2.54,2.29,2.62.74.48-.62.71-2.89.93-3.58a29.45,29.45,0,0,1,2.57-5.8,31.58,31.58,0,0,1,8.92-10l-10.12-4.12c.79,2.59-4.64,7-6.33,8.69a100.69,100.69,0,0,1-10.06,9c-6.3,4.86-14.53,11.11-22.75,11.78-8.76.72-7.46-9-5.65-14.74,1.16-3.64,2.88-8.17,6.45-10.07,2.4-1.27,5.29-.77,4.16,2-1.39,3.34,1.5,7.26,4.64,8.16,3.81,1.15,6.78-1.3,8.16-4.59Z" transform="translate(-46.46 -14.47)"/><path d="M432.83,119.29Q443,96.82,453.45,74.5q5.15-10.94,10.38-21.84,2.52-5.23,5.05-10.45c1.87-3.85,4.53-7.89,5.18-12.13.81-5.27-5.45-10.51-9.83-5.72-5.28,5.77-7.92,14.93-11.15,22q-5.22,11.46-10.33,23Q432.63,92.15,423,115.14c-2.34,5.57,7.33,9.7,9.83,4.15Z" transform="translate(-46.46 -14.47)"/><path d="M429.22,151.82l.26-.07.1,0a5.27,5.27,0,0,0,2.35-1.23c.25-.18.5-.36.73-.56a7.63,7.63,0,0,0,2-4.85c-.08-.61-.16-1.22-.25-1.82a6.93,6.93,0,0,0-1.76-3l0,0a5.16,5.16,0,0,0-2.22-1.43,5.71,5.71,0,0,0-.93-.37l-.26-.07a7.11,7.11,0,0,0-3.72,0,7,7,0,0,0-3.09,1.8c-.36.47-.73.94-1.09,1.42a7.06,7.06,0,0,0-1,3.53,5.25,5.25,0,0,0,.6,2.7,5.12,5.12,0,0,0,1.45,2.25,6.91,6.91,0,0,0,3.09,1.8,7,7,0,0,0,3.72,0Z" transform="translate(-46.46 -14.47)"/></svg>